<svg xmlns="http://www.w3.org/2000/svg" viewBox="0 0 69.74 57.46"><defs><style>.cls-1{fill:#fff;}.cls-10,.cls-2{opacity:0.4;}.cls-10,.cls-11,.cls-3{fill:#c9d2df;}.cls-4{opacity:0.1;}.cls-5{fill:#3e3126;}.cls-6{fill:#4df58c;}.cls-7{fill:#42caf8;}.cls-8{fill:#ff7769;}.cls-9{fill:#ffe56b;}.cls-11{opacity:0.2;}.cls-12{fill:#f78a11;}.cls-13{fill:#ffb320;}.cls-14{fill:#ff9e3e;}</style></defs><g id="Layer_2" data-name="Layer 2"><g id="Layer_1-2" data-name="Layer 1"><path class="cls-1" d="M2.23,33.9a15.93,15.93,0,0,1-1.5-4.57c-1.22-6.74,1.56-16,6.13-21.16L8.94,6.34a11.61,11.61,0,0,1,1.17-.89A30.36,30.36,0,0,1,29,.68,55.41,55.41,0,0,1,49.13,6.21,19.84,19.84,0,0,1,54.6,9.63,2.33,2.33,0,0,0,55,9.9l5.1,3.28.2.14C65.08,16.94,68,22.75,69,28.71a30.91,30.91,0,0,1-4.41,21.83,2.79,2.79,0,0,1-.57.62l-5.4,4.24a7.58,7.58,0,0,1-8,.72A4.57,4.57,0,0,1,48,52.79,9.23,9.23,0,0,1,48.31,50a6.93,6.93,0,0,0-.24-3.86,4,4,0,0,0-2.81-2.51,5.51,5.51,0,0,0-3.79,1c-1.88,1.13-3.53,2.62-5.4,3.76a21.13,21.13,0,0,1-15.72,2.12c-5.1-1.19-9-4-13-7.36a2.41,2.41,0,0,1-.66-.89l-3.06-4.5Z"/><g class="cls-2"><path class="cls-3" d="M64.59,50.55a2.39,2.39,0,0,1-.57.62l-5.4,4.24a7.57,7.57,0,0,1-8,.72A4.61,4.61,0,0,1,48,52.81a9.26,9.26,0,0,1,.35-2.76,6.94,6.94,0,0,0-.24-3.86,4,4,0,0,0-2.8-2.5,5.57,5.57,0,0,0-3.8,1c-1.89,1.14-3.52,2.63-5.4,3.78a21.27,21.27,0,0,1-15.72,2.12c-5.09-1.21-9-4-13-7.37a2.56,2.56,0,0,1-.66-.9L4.13,38.45a57.48,57.48,0,0,1,13.52-5.18c6.53-1.47,13.63-1.25,19.6,1.79,1.9,1,3.64,2.18,5.49,3.23A28.85,28.85,0,0,0,60,42a24.59,24.59,0,0,0,9-2.86A30,30,0,0,1,64.59,50.55Z"/></g><g class="cls-4"><path class="cls-3" d="M68.73,39.24a24.68,24.68,0,0,1-9,2.85A28.85,28.85,0,0,1,42.5,38.42c-1.84-1.05-3.59-2.28-5.49-3.23-6-3-13.07-3.26-19.6-1.79A57,57,0,0,0,3.89,38.58l2.63,3.86a2.65,2.65,0,0,0,.66.89A39.94,39.94,0,0,0,15,48.82a39.29,39.29,0,0,1-7.84-5.49,2.62,2.62,0,0,1-.66-.89L3.44,37.93,2,34A16.09,16.09,0,0,1,.49,29.46a41.16,41.16,0,0,1,24-10.78,58.75,58.75,0,0,1,9.38,0c12.45.87,25.2,4.36,35.07,11.73A31.32,31.32,0,0,1,68.73,39.24Z"/></g><path class="cls-5" d="M15.8,49.56a.53.53,0,0,1-.24-.06C5.63,44.38,2,37.06.75,31.83A24.44,24.44,0,0,1,.36,21.56a.51.51,0,0,1,.63-.4.53.53,0,0,1,.4.63c0,.17-3.62,17.34,14.66,26.77a.53.53,0,0,1-.25,1Z"/><path class="cls-5" d="M2.21,16.87l-.15,0a.53.53,0,0,1-.35-.66C1.76,16,6.92,0,26.62,0h.75a.53.53,0,0,1,.52.54.52.52,0,0,1-.54.51H26.6C7.72,1.06,2.91,15.86,2.72,16.5A.54.54,0,0,1,2.21,16.87Z"/><path class="cls-5" d="M66.32,21.61a.53.53,0,0,1-.45-.25C56.14,5.14,34,1.72,33.77,1.69a.53.53,0,0,1-.45-.6.52.52,0,0,1,.6-.44c.23,0,22.87,3.51,32.86,20.16a.55.55,0,0,1-.19.73A.5.5,0,0,1,66.32,21.61Z"/><path class="cls-5" d="M55.47,57.15a.53.53,0,0,1-.5-.37.52.52,0,0,1,.34-.66c8.17-2.59,11.34-9.34,12.56-14.55a33.31,33.31,0,0,0,.06-14.65.53.53,0,0,1,1-.29c1.14,4,3.42,25.2-13.32,30.49A.45.45,0,0,1,55.47,57.15Z"/><path class="cls-5" d="M53.14,57.46h0a5.54,5.54,0,0,1-5.27-3.85.56.56,0,1,1,1.06-.37,4.41,4.41,0,0,0,4.28,3.1.56.56,0,0,1,0,1.12Z"/><circle class="cls-5" cx="18.67" cy="50.12" r="0.61"/><circle class="cls-5" cx="1.6" cy="18.94" r="0.61"/><circle class="cls-5" cx="67.94" cy="24.39" r="0.61"/><circle class="cls-5" cx="30.42" cy="0.9" r="0.61"/><path class="cls-6" d="M31.65,7.87a3.78,3.78,0,0,1,6.62,2.32,3.62,3.62,0,0,1-.13,1.09,4.29,4.29,0,0,1-5.08,3.26,3.78,3.78,0,0,1-2.33-2.06,4.27,4.27,0,0,1,.92-4.61Z"/><path class="cls-7" d="M20.19,6.93a3.78,3.78,0,0,1,6.62,2.31,3.65,3.65,0,0,1-.13,1.1,4.29,4.29,0,0,1-5.08,3.25,3.73,3.73,0,0,1-2.32-2.06,4.23,4.23,0,0,1,.91-4.6Z"/><path class="cls-8" d="M41.85,11.55a3.78,3.78,0,0,1,6.62,2.32A3.33,3.33,0,0,1,48.34,15a4.28,4.28,0,0,1-5.07,3.26,3.73,3.73,0,0,1-2.33-2.06,4.27,4.27,0,0,1,.91-4.61Z"/><path class="cls-9" d="M8.38,16.49c3.13-3.81,8.21-2.11,8.13,3a6.28,6.28,0,0,1-.23,1.62c-1,3.59-4,5.9-6.59,5.14a4.3,4.3,0,0,1-2.77-2.87,7.43,7.43,0,0,1,1.46-6.84Z"/><circle class="cls-5" cx="42.09" cy="11.23" r="0.61"/><path class="cls-5" d="M44.52,19.07a4.39,4.39,0,0,1-1.19-.17,4.34,4.34,0,0,1-2.66-2.24,4.84,4.84,0,0,1-.32-3.57.51.51,0,0,1,1,.28,3.84,3.84,0,0,0,.25,2.83,3.28,3.28,0,0,0,4.68,1.36,3.94,3.94,0,0,0,1.47-5.1,3.27,3.27,0,0,0-2-1.71.51.51,0,0,1,.29-1A4.33,4.33,0,0,1,48.64,12a5,5,0,0,1-1.86,6.43A4.42,4.42,0,0,1,44.52,19.07Z"/><path class="cls-5" d="M22.92,14.64a4,4,0,0,1-1.18-.17,4.62,4.62,0,0,1-3-5.81A4.77,4.77,0,0,1,22.6,5.22a.51.51,0,0,1,.14,1,3.75,3.75,0,0,0-3,2.72A3.6,3.6,0,0,0,22,13.49a3.6,3.6,0,0,0,4.36-2.62,3.8,3.8,0,0,0-.83-3.66.51.51,0,1,1,.74-.7,4.81,4.81,0,0,1,1.07,4.64A4.72,4.72,0,0,1,22.92,14.64Z"/><path class="cls-5" d="M34.18,15.46A4,4,0,0,1,33,15.29a4.29,4.29,0,0,1-2.67-2.23A4.86,4.86,0,0,1,30,9.48a.51.51,0,0,1,.63-.34.5.5,0,0,1,.35.63,3.84,3.84,0,0,0,.25,2.83A3.29,3.29,0,0,0,35.92,14a3.93,3.93,0,0,0,1.47-5.09,3.25,3.25,0,0,0-4.18-1.6.51.51,0,0,1-.38-1A4.28,4.28,0,0,1,38.3,8.4a5,5,0,0,1-1.86,6.43A4.39,4.39,0,0,1,34.18,15.46Z"/><ellipse class="cls-1" cx="58" cy="41.92" rx="7.34" ry="5.58" transform="translate(1.6 85.96) rotate(-73.85)"/><path class="cls-5" d="M57.07,50.06a4.82,4.82,0,0,1-1.37-.19c-3.26-.95-4.92-5.11-3.71-9.3s4.84-6.82,8.1-5.87S65,39.81,63.79,44a9.12,9.12,0,0,1-3.22,4.82A5.86,5.86,0,0,1,57.07,50.06Zm1.65-14.44c-2.35,0-4.74,2.15-5.65,5.27-1,3.58.28,7.13,2.94,7.9a4.43,4.43,0,0,0,3.89-.88,8,8,0,0,0,2.81-4.23h0c1-3.59-.28-7.14-2.93-7.91A3.82,3.82,0,0,0,58.72,35.62Z"/><ellipse class="cls-10" cx="27.63" cy="32.85" rx="3.23" ry="4.68" transform="translate(-11.61 50.25) rotate(-73.85)"/><circle class="cls-10" cx="37.04" cy="35.18" r="1.46"/><circle class="cls-11" cx="34.23" cy="31.2" r="0.95"/><circle class="cls-10" cx="14.72" cy="35.31" r="2.72"/><circle class="cls-11" cx="20.77" cy="30.14" r="0.89"/><ellipse class="cls-1" cx="21.36" cy="8.07" rx="0.85" ry="0.59" transform="translate(-0.21 15.55) rotate(-39.82)"/><circle class="cls-1" cx="23" cy="7.82" r="0.25"/><ellipse class="cls-1" cx="32.6" cy="8.51" rx="0.85" ry="0.59" transform="translate(2.12 22.85) rotate(-39.82)"/><circle class="cls-1" cx="34.24" cy="8.26" r="0.25"/><ellipse class="cls-1" cx="43.88" cy="11.72" rx="0.85" ry="0.59" transform="translate(2.67 30.82) rotate(-39.82)"/><circle class="cls-1" cx="45.52" cy="11.47" r="0.25"/><path class="cls-12" d="M52.4,18.83A3.78,3.78,0,0,1,59,21.14a3.65,3.65,0,0,1-.13,1.1,4.28,4.28,0,0,1-5.07,3.25,3.73,3.73,0,0,1-2.33-2.06,4.25,4.25,0,0,1,.91-4.6Z"/><circle class="cls-5" cx="52.64" cy="18.51" r="0.61"/><path class="cls-5" d="M55.07,26.34a4.39,4.39,0,0,1-1.19-.17,4.63,4.63,0,0,1-3-5.81.51.51,0,1,1,1,.28,3.61,3.61,0,0,0,2.29,4.55,3.29,3.29,0,0,0,2.64-.36,3.86,3.86,0,0,0,1.72-2.26A3.61,3.61,0,0,0,56.24,18a.51.51,0,0,1,.29-1,4.63,4.63,0,0,1,3,5.81,4.89,4.89,0,0,1-2.18,2.86A4.41,4.41,0,0,1,55.07,26.34Z"/><ellipse class="cls-1" cx="54.43" cy="19" rx="0.85" ry="0.59" transform="translate(0.46 39.27) rotate(-39.82)"/><circle class="cls-1" cx="56.07" cy="18.75" r="0.25"/><ellipse class="cls-1" cx="10.81" cy="16.18" rx="0.85" ry="0.59" transform="translate(-7.86 10.67) rotate(-39.82)"/><circle class="cls-1" cx="12.44" cy="15.93" r="0.25"/><path class="cls-13" d="M16.36,21.48c-1,3.59-4,5.9-6.6,5.15a3.93,3.93,0,0,1-2.22-1.76,1.51,1.51,0,0,1,.15-.28,8.08,8.08,0,0,1,3-3.37c1.53-.79,3.34-.68,5-.83.26,0,.51-.05.78-.09A5.3,5.3,0,0,1,16.36,21.48Z"/><path class="cls-5" d="M11.06,27.21A4.39,4.39,0,0,1,9.87,27c-2.84-.83-4.3-4.43-3.26-8a8.36,8.36,0,0,1,1.9-3.37.49.49,0,0,1,.71.67,7.25,7.25,0,0,0-1.67,3c-.9,3.1.26,6.17,2.59,6.84s4.94-1.3,5.84-4.4a6.87,6.87,0,0,0-.11-4.38,3.9,3.9,0,0,0-2.48-2.46.48.48,0,1,1,.27-.93,4.8,4.8,0,0,1,3.11,3,7.71,7.71,0,0,1,.14,5C16,25.09,13.54,27.2,11.06,27.21Z"/><path class="cls-14" d="M44.93,43.58a2.52,2.52,0,0,1,0,.37,3.47,3.47,0,0,0-1.16-.1l-.37,0a5,5,0,0,0-1.67.44,3.89,3.89,0,0,0-.42.19,9.92,9.92,0,0,0-1.88,1.16c-1.16.8-2.27,1.7-3.43,2.49l-.11.07a22.33,22.33,0,0,1-7.06,2.71c0-.41-.07-.81-.1-1.22-.2-3.38,1.37-7,4.42-8.52A25.49,25.49,0,0,1,37.23,40a25.5,25.5,0,0,1,3.27-.88,4.88,4.88,0,0,1,2,.1,0,0,0,0,1,0,0c.33.18.67.34,1,.5l.11.08A4.42,4.42,0,0,1,44.93,43.58Z"/><path class="cls-5" d="M25.33,51.68a16.38,16.38,0,0,1-3.15-.26.53.53,0,0,1,.21-1,21.92,21.92,0,0,0,17.12-5,10.93,10.93,0,0,1,2.92-1.82c.9-.35,3.15-1,4.78.22,1.38,1.07,1.88,3.21,1.49,6.37a.55.55,0,0,1-.59.46.53.53,0,0,1-.46-.59c.34-2.72,0-4.59-1.09-5.41s-3-.35-3.74-.07a9.9,9.9,0,0,0-2.63,1.65A23,23,0,0,1,25.33,51.68Z"/><circle class="cls-14" cx="33.16" cy="41.75" r="2.22"/><circle class="cls-14" cx="41.9" cy="38.86" r="1.11"/><circle class="cls-14" cx="28.99" cy="47.87" r="1.15"/><circle class="cls-14" cx="25.98" cy="43.79" r="0.71"/><circle class="cls-14" cx="28.64" cy="40.95" r="0.62"/><path class="cls-5" d="M46.94,35.94l-.11,0a.3.3,0,0,1-.17-.38h0l1.59-3.78a.31.31,0,0,1,.39-.15.28.28,0,0,1,.15.38l-1.59,3.77A.3.3,0,0,1,46.94,35.94Z"/><path class="cls-5" d="M49.06,34.12a.2.2,0,0,1-.11,0,.29.29,0,0,1-.16-.38h0l.86-2a.29.29,0,0,1,.53.23l-.85,2A.31.31,0,0,1,49.06,34.12Z"/></g></g></svg>